<svg xmlns="http://www.w3.org/2000/svg" version="1.1" x="0" y="0" viewBox="0 0 100 100" enable-background="new 0 0 100 100" xml:space="preserve"><path d="M89.4 21.6C82 8.5 76.4 1.3 76.4 1.3S64.9 0.1 50.2 0.1 23.6 1.3 23.6 1.3s-5.7 7.3-13 20.3S0.1 44.7 0.1 44.7s6.2 12.3 23.1 30.8S50 100 50 100s10.1-6.1 26.9-24.5S100 44.7 100 44.7 96.7 34.7 89.4 21.6zM57.4 73.4H42.7l-3.1-7.3L50 64.4l10.5 1.7L57.4 73.4zM61.9 37.7L77.3 27.3 66.8 64l-13.7-2.4 -1.7-5.2 7-5.5H41.6l7 5.5 -1.7 5.2 -13.7 2.4L22.7 27.3l15.4 10.4 -0.3 12.1 6.7-18.4 -22.1-7.6 11.6-6.2L50 23.1l16.1-5.5 11.6 6.2L55.6 31.5l6.7 18.4L61.9 37.7z"/></svg>